<svg width="180" height="180" viewBox="0 0 180 180" fill="none" xmlns="http://www.w3.org/2000/svg">
<path d="M102.022 90.1479C102.018 90.1607 102.002 90.1677 101.99 90.1631C101.858 90.1166 101.021 89.8289 95.6877 88.0074C89.3604 85.8463 89.3614 85.8439 89.3622 85.8416C89.3622 85.8416 89.3629 85.8381 89.3635 85.8364C89.3648 85.8327 89.3665 85.8287 89.3681 85.8241C89.3714 85.8147 89.3753 85.8034 89.3799 85.7903C89.3891 85.7642 89.4012 85.7306 89.4158 85.6898C89.4451 85.6082 89.4849 85.4977 89.536 85.3603C89.6383 85.0853 89.7848 84.7017 89.9758 84.2252C90.3575 83.2729 90.9205 81.9422 91.6696 80.3586C93.1592 77.2094 95.4293 72.967 98.5394 68.6818C104.595 60.3386 114.87 50.4797 129.814 50.4797H160.595L161.095 50.4862C171.581 50.7497 180 59.2697 180 69.7417V110.923C180 121.394 171.581 129.914 161.095 130.178L160.595 130.184H132.491C131.012 130.184 129.814 131.374 129.814 132.841V160.738C129.814 171.376 121.126 180 110.409 180H68.9219C58.3721 180 49.7888 171.643 49.5233 161.235L49.5167 160.738V127.86C49.5167 115.802 58.6126 107.843 65.471 103.467C69.1073 101.147 72.6937 99.4527 75.3429 98.3428C76.6773 97.7837 77.7987 97.3624 78.6023 97.076C79.0046 96.9327 79.3289 96.8225 79.5623 96.7452C79.679 96.7065 79.7733 96.6761 79.8432 96.6537C79.8669 96.6462 79.8879 96.6394 79.906 96.6336L79.9504 96.6194C79.9535 96.6184 79.9568 96.6176 79.9596 96.6168C79.9631 96.6156 79.9667 96.6144 79.9697 96.6135C88.5128 93.8904 98.2133 96.2514 104.159 102.783C110.126 109.339 111.321 118.827 106.42 128.833C105.774 130.153 104.125 130.586 102.845 129.852L95.8911 125.867C94.6109 125.133 94.1953 123.515 94.7895 122.171C97.2211 116.674 95.779 113.392 94.2292 111.689C91.9974 109.237 87.8552 108.04 84.0345 109.27C84.0103 109.278 83.9857 109.286 83.9614 109.293C83.9581 109.294 83.9542 109.296 83.9496 109.297C83.922 109.306 83.8712 109.322 83.7993 109.346C83.6553 109.394 83.4262 109.472 83.1243 109.579C82.519 109.795 81.6277 110.129 80.547 110.581C78.3658 111.495 75.5115 112.852 72.7074 114.642C66.6849 118.485 62.8996 122.981 62.8996 127.86V160.738L62.9075 161.045C63.0687 164.204 65.6998 166.716 68.9219 166.716H110.409C113.735 166.716 116.431 164.039 116.431 160.738V123.542C116.431 119.874 119.427 116.9 123.123 116.9H160.595C163.817 116.9 166.448 114.389 166.609 111.23L166.617 110.923V69.7417C166.617 66.4402 163.921 63.7638 160.595 63.7638H129.814C121.338 63.7638 114.55 69.3478 109.397 76.4473C106.904 79.8835 105.033 83.3626 103.783 86.0044C103.163 87.3161 102.707 88.3986 102.411 89.1354C102.264 89.5032 102.157 89.7837 102.091 89.9611C102.058 90.0496 102.035 90.1127 102.022 90.1479ZM102.011 90.1797C102.011 90.1797 102.012 90.177 102.013 90.1751L102.013 90.1732C102.012 90.1761 102.011 90.1797 102.011 90.1797Z" fill="#0F67B1"/>
<path d="M111.078 0C121.795 0 130.483 8.62389 130.483 19.262V40.5166C130.483 41.9839 129.284 43.1638 127.809 43.2612C125.335 43.4246 122.982 43.8113 120.75 44.3789C118.95 44.8365 117.1 43.5498 117.1 41.7059V19.262C117.1 15.9605 114.404 13.2841 111.078 13.2841H69.5911C66.265 13.2841 63.5688 15.9605 63.5688 19.262V56.4576C63.5688 60.1259 60.5729 63.0996 56.8773 63.0996H19.4052C16.0792 63.0996 13.3829 65.776 13.3829 69.0775V110.258C13.3829 113.56 16.0792 116.236 19.4052 116.236H41.6472C43.5334 116.236 44.8344 118.129 44.3793 119.945C43.8139 122.203 43.4944 124.618 43.4944 127.196C43.4944 128.479 42.4459 129.52 41.1524 129.52H19.4052C8.68801 129.52 5.20773e-06 120.896 0 110.258V69.0775C4.68464e-07 58.4394 8.68801 49.8155 19.4052 49.8155H47.5093C48.9875 49.8155 50.1859 48.626 50.1859 47.1587V19.262C50.1859 8.62388 58.8739 0 69.5911 0H111.078Z" fill="#3FA2F6"/>
</svg>
